{
    "asset" : {
        "generator" : "Khronos glTF Blender I/O v1.5.17",
        "version" : "2.0"
    },
    "scene" : 1,
    "scenes" : [
        {
            "name" : "Scene",
            "nodes" : [
                0
            ]
        },
        {
            "name" : "Scene.001",
            "nodes" : [
                1
            ]
        }
    ],
    "nodes" : [
        {
            "mesh" : 0,
            "name" : "Building",
            "rotation" : [
                0,
                -0.7071068286895752,
                0,
                0.7071067094802856
            ],
            "scale" : [
                0.0010000000474974513,
                0.0010000000474974513,
                0.0010000000474974513
            ],
            "translation" : [
                0.21971282362937927,
                0.10509315133094788,
                -0.05865746736526489
            ]
        },
        {
            "mesh" : 0,
            "name" : "Building",
            "rotation" : [
                0,
                -0.7071068286895752,
                0,
                0.7071067094802856
            ],
            "scale" : [
                0.0010000000474974513,
                0.0010000000474974513,
                0.0010000000474974513
            ],
            "translation" : [
                0.21971282362937927,
                0.10509315133094788,
                -0.05865746736526489
            ]
        }
    ],
    "materials" : [
        {
            "doubleSided" : true,
            "name" : "White",
            "pbrMetallicRoughness" : {}
        }
    ],
    "meshes" : [
        {
            "name" : "object_1596",
            "primitives" : [
                {
                    "attributes" : {
                        "POSITION" : 0,
                        "NORMAL" : 1,
                        "TEXCOORD_0" : 2
                    },
                    "indices" : 3,
                    "material" : 0
                }
            ]
        }
    ],
    "accessors" : [
        {
            "bufferView" : 0,
            "componentType" : 5126,
            "count" : 15709,
            "max" : [
                1263.221435546875,
                175.70896911621094,
                986.822265625
            ],
            "min" : [
                -1252.46435546875,
                -156.99746704101562,
                -717.9480590820312
            ],
            "type" : "VEC3"
        },
        {
            "bufferView" : 1,
            "componentType" : 5126,
            "count" : 15709,
            "type" : "VEC3"
        },
        {
            "bufferView" : 2,
            "componentType" : 5126,
            "count" : 15709,
            "type" : "VEC2"
        },
        {
            "bufferView" : 3,
            "componentType" : 5123,
            "count" : 42177,
            "type" : "SCALAR"
        }
    ],
    "bufferViews" : [
        {
            "buffer" : 0,
            "byteLength" : 188508,
            "byteOffset" : 0
        },
        {
            "buffer" : 0,
            "byteLength" : 188508,
            "byteOffset" : 188508
        },
        {
            "buffer" : 0,
            "byteLength" : 125672,
            "byteOffset" : 377016
        },
        {
            "buffer" : 0,
            "byteLength" : 84354,
            "byteOffset" : 502688
        }
    ],
    "buffers" : [
        {
            "byteLength" : 587044,
            "uri" : "data:application/octet-stream;base64,"
        }
    ]
}
